<svg id="pathfinder" xmlns="http://www.w3.org/2000/svg" viewBox="0 0 1024 1024"><title>automobile</title><path d="M512.38,229.89a36.94,36.94,0,0,0-25.83,10.17c1.06,12.66,8.32,27.43,27.64,27.56,14.95,0.1,23.06-9.27,23.12-18.47C537.41,235.58,525,230,512.38,229.89Z"/><path d="M512,62A160,160,0,1,0,672,222,160,160,0,0,0,512,62Zm3.81,239.21c-48.53-.33-69.45-35.66-69.16-79.59,0.33-49,30-79.15,76.43-78.83,18.17,0.12,35.15,6,46.59,15l-17.44,28.86c-8.46-7-16.72-10.23-29.37-10.32-20.24-.14-36,15.17-36.13,36.79V215c7.66-10.07,22.2-17.56,37.84-17.46,27.6,0.19,53,17.61,52.79,50.27C577.14,279.31,551.46,301.45,515.81,301.21Z"/><path d="M857.16,569.27H796.22a21.54,21.54,0,0,0-21.54,21.54v0.92l-23.51-70.09A67.67,67.67,0,0,0,687,475.48H337a67.67,67.67,0,0,0-64.16,46.15l-23.51,70.09v-0.92a21.54,21.54,0,0,0-21.54-21.54H166.84a21.54,21.54,0,0,0-21.54,21.54v10.57a21.54,21.54,0,0,0,18.62,21.34l48.45,6.62L182.2,670.43a142.13,142.13,0,0,0-27.56,84.11v91h0v86.89A29.35,29.35,0,0,0,184,961.8h51a29.35,29.35,0,0,0,29.35-29.35v-50.1H759.68v50.1A29.35,29.35,0,0,0,789,961.8h51a29.35,29.35,0,0,0,29.35-29.35V805.35h0V754.54a142.13,142.13,0,0,0-27.56-84.11l-30.17-41.09,48.45-6.62a21.54,21.54,0,0,0,18.62-21.34V590.81A21.54,21.54,0,0,0,857.16,569.27ZM301.52,536a44.88,44.88,0,0,1,42.59-30.63H679.89A44.88,44.88,0,0,1,722.48,536l26.37,75.76H274.7Zm48.76,210.32a23.49,23.49,0,0,1-23.49,23.49H208.39a23.49,23.49,0,0,1-23.49-23.49v-11a31.89,31.89,0,0,1,37.25-31.44l108.58,18.51a23.49,23.49,0,0,1,19.54,23.16v0.79Zm477.5-35.39a31.89,31.89,0,0,1,11.32,24.37v11a23.49,23.49,0,0,1-23.49,23.49H697.21a23.49,23.49,0,0,1-23.49-23.49v-0.79a23.49,23.49,0,0,1,19.54-23.16l108.58-18.51A31.89,31.89,0,0,1,827.77,710.92Z"/></svg>