<svg id="pathfinder" xmlns="http://www.w3.org/2000/svg" viewBox="0 0 1024 1024"><title>automobile</title><path d="M512,62A160,160,0,1,0,672,222,160,160,0,0,0,512,62Zm39.67,236.7-7.82-23.23H480.15l-7.82,23.23h-43L487,145.3h49.68l58,153.41h-43Z"/><polygon points="490.5 242.13 533.5 242.13 511.88 179.8 490.5 242.13"/><path d="M329.89,727.29L221.31,708.78a26.89,26.89,0,0,0-31.41,26.51v11c0,0.59,0,1.16.09,1.73h155.2c0.05-.57.09-1.15,0.09-1.73v-0.79A18.45,18.45,0,0,0,329.89,727.29Z"/><path d="M694.11,727.29a18.45,18.45,0,0,0-15.38,18.23v0.79c0,0.59,0,1.16.09,1.73H834c0.05-.57.09-1.15,0.09-1.73v-11a26.87,26.87,0,0,0-31.41-26.51Z"/><path d="M857.16,569.27H796.22a21.54,21.54,0,0,0-21.54,21.54v0.92l-23.51-70.09A67.68,67.68,0,0,0,687,475.48H337a67.68,67.68,0,0,0-64.16,46.15l-23.51,70.09v-0.92a21.54,21.54,0,0,0-21.54-21.54H166.84a21.54,21.54,0,0,0-21.54,21.54v10.57a21.54,21.54,0,0,0,18.62,21.34l48.45,6.62L182.2,670.43a142.13,142.13,0,0,0-27.56,84.11v177.9A29.35,29.35,0,0,0,184,961.8h51a29.35,29.35,0,0,0,29.35-29.35v-50.1H759.68v50.1A29.35,29.35,0,0,0,789,961.8h51a29.35,29.35,0,0,0,29.35-29.35V754.54a142.13,142.13,0,0,0-27.56-84.11l-30.17-41.09,48.45-6.62a21.54,21.54,0,0,0,18.62-21.34V590.81A21.54,21.54,0,0,0,857.16,569.27ZM301.52,536a44.87,44.87,0,0,1,42.59-30.63H679.89A44.88,44.88,0,0,1,722.48,536l26.37,75.76H274.7Zm53.76,210.32a28.52,28.52,0,0,1-28.49,28.49H208.39a28.52,28.52,0,0,1-28.49-28.49v-11A36.89,36.89,0,0,1,223,698.92l108.58,18.51a28.42,28.42,0,0,1,23.7,28.09v0.79ZM831,707.1a36.81,36.81,0,0,1,13.1,28.19v11a28.52,28.52,0,0,1-28.49,28.49H697.21a28.52,28.52,0,0,1-28.49-28.49v-0.79a28.42,28.42,0,0,1,23.7-28.09L801,698.92A36.83,36.83,0,0,1,831,707.1Z"/></svg>