<svg id="pathfinder" xmlns="http://www.w3.org/2000/svg" viewBox="0 0 1024 1024"><title>automobile</title><path d="M512.26,236.37c-9.9,1.31-24.89,7-25,17.08-0.06,9,10,14.79,24.74,14.89,14.26,0.1,24.88-5.58,24.94-14.55C537.05,243.67,521.91,237.82,512.26,236.37Z"/><path d="M512.47,205.1c9.44-1.55,22.12-6.52,22.18-15.49,0.06-8.28-8.87-13.86-22-13.95-13.57-.09-22.35,5.37-22.4,13.65C490.21,198.27,503.05,203.42,512.47,205.1Z"/><path d="M512,62A160,160,0,1,0,672,222,160,160,0,0,0,512,62Zm-0.18,239.23c-33.12-.22-65-13.55-64.8-43.68,0.12-17.48,13.55-31.65,31.31-38.43-16.29-6.32-28.4-17.44-28.28-35.84,0.2-29.67,32.71-40.72,62.83-40.52,29.9,0.2,62.48,11.69,62.28,41.36-0.12,18.4-12.62,29.35-29,35.45,17.66,7,30.91,21.37,30.79,38.85C576.77,288.33,544.94,301.45,511.82,301.23Z"/><path d="M857.16,569.27H796.22a21.54,21.54,0,0,0-21.54,21.54v0.92l-23.51-70.09A67.67,67.67,0,0,0,687,475.48H337a67.67,67.67,0,0,0-64.16,46.15l-23.51,70.09v-0.92a21.54,21.54,0,0,0-21.54-21.54H166.84a21.54,21.54,0,0,0-21.54,21.54v10.57a21.54,21.54,0,0,0,18.62,21.34l48.45,6.62L182.2,670.43a142.13,142.13,0,0,0-27.56,84.11v91h0v86.89A29.35,29.35,0,0,0,184,961.8h51a29.35,29.35,0,0,0,29.35-29.35v-50.1H759.68v50.1A29.35,29.35,0,0,0,789,961.8h51a29.35,29.35,0,0,0,29.35-29.35V805.35h0V754.54a142.13,142.13,0,0,0-27.56-84.11l-30.17-41.09,48.45-6.62a21.54,21.54,0,0,0,18.62-21.34V590.81A21.54,21.54,0,0,0,857.16,569.27ZM301.52,536a44.88,44.88,0,0,1,42.59-30.63H679.89A44.88,44.88,0,0,1,722.48,536l26.37,75.76H274.7Zm48.76,210.32a23.49,23.49,0,0,1-23.49,23.49H208.39a23.49,23.49,0,0,1-23.49-23.49v-11a31.89,31.89,0,0,1,37.25-31.44l108.58,18.51a23.49,23.49,0,0,1,19.54,23.16v0.79Zm477.5-35.39a31.89,31.89,0,0,1,11.32,24.37v11a23.49,23.49,0,0,1-23.49,23.49H697.21a23.49,23.49,0,0,1-23.49-23.49v-0.79a23.49,23.49,0,0,1,19.54-23.16l108.58-18.51A31.89,31.89,0,0,1,827.77,710.92Z"/></svg>