<svg id="pathfinder" xmlns="http://www.w3.org/2000/svg" viewBox="0 0 1024 1024"><title>automobile</title><path d="M512,62A160,160,0,1,0,672,222,160,160,0,0,0,512,62Zm0,239.23c-29.44,0-51.52-10.35-63.48-24.15l20-26c11,10.81,28.52,16.56,41.86,16.56,17,0,25.76-6.9,25.76-15.87s-6.44-14-27.37-14c-6.67,0-18.4.23-20.7,0.46v-34c3,0.23,14.95.23,20.7,0.23,15.87,0,24.84-4.6,24.84-13.11,0-9.66-11-14.72-25.76-14.72-14,0-27.83,5.75-38.64,15.18l-18.63-24.15c12.88-14.49,33.12-24.84,61.41-24.84,39.1,0,60.95,16.79,60.95,42.09,0,17.94-15.41,31.51-33.58,34.5,16.33,1.61,36.11,14.26,36.11,36.34C575.48,282.6,550.18,301.23,512,301.23Z"/><path d="M857.16,569.27H796.22a21.54,21.54,0,0,0-21.54,21.54v0.92l-23.51-70.09A67.67,67.67,0,0,0,687,475.48H337a67.67,67.67,0,0,0-64.16,46.15l-23.51,70.09v-0.92a21.54,21.54,0,0,0-21.54-21.54H166.84a21.54,21.54,0,0,0-21.54,21.54v10.57a21.54,21.54,0,0,0,18.62,21.34l48.45,6.62L182.2,670.43a142.13,142.13,0,0,0-27.56,84.11v91h0v86.89A29.35,29.35,0,0,0,184,961.8h51a29.35,29.35,0,0,0,29.35-29.35v-50.1H759.68v50.1A29.35,29.35,0,0,0,789,961.8h51a29.35,29.35,0,0,0,29.35-29.35V805.35h0V754.54a142.13,142.13,0,0,0-27.56-84.11l-30.17-41.09,48.45-6.62a21.54,21.54,0,0,0,18.62-21.34V590.81A21.54,21.54,0,0,0,857.16,569.27ZM301.52,536a44.88,44.88,0,0,1,42.59-30.63H679.89A44.88,44.88,0,0,1,722.48,536l26.37,75.76H274.7Zm48.76,210.32a23.49,23.49,0,0,1-23.49,23.49H208.39a23.49,23.49,0,0,1-23.49-23.49v-11a31.89,31.89,0,0,1,37.25-31.44l108.58,18.51a23.49,23.49,0,0,1,19.54,23.16v0.79Zm477.5-35.39a31.89,31.89,0,0,1,11.32,24.37v11a23.49,23.49,0,0,1-23.49,23.49H697.21a23.49,23.49,0,0,1-23.49-23.49v-0.79a23.49,23.49,0,0,1,19.54-23.16l108.58-18.51A31.89,31.89,0,0,1,827.77,710.92Z"/></svg>