<svg id="pathfinder" xmlns="http://www.w3.org/2000/svg" viewBox="0 0 1024 1024"><title>automobile</title><path d="M512,62A160,160,0,1,0,672,222,160,160,0,0,0,512,62Zm65.78,209-18.63-.12L559,298.89l-39.79-.27,0.19-28.06L446,270.07l0.21-30.82L505,145.11l55,0.37-0.61,90.62L578,236.23Z"/><polygon points="519.59 235.83 519.97 179.71 484.63 235.6 519.59 235.83"/><path d="M857.16,569.27H796.22a21.54,21.54,0,0,0-21.54,21.54v0.92l-23.51-70.09A67.67,67.67,0,0,0,687,475.48H337a67.67,67.67,0,0,0-64.16,46.15l-23.51,70.09v-0.92a21.54,21.54,0,0,0-21.54-21.54H166.84a21.54,21.54,0,0,0-21.54,21.54v10.57a21.54,21.54,0,0,0,18.62,21.34l48.45,6.62L182.2,670.43a142.13,142.13,0,0,0-27.56,84.11v91h0v86.89A29.35,29.35,0,0,0,184,961.8h51a29.35,29.35,0,0,0,29.35-29.35v-50.1H759.68v50.1A29.35,29.35,0,0,0,789,961.8h51a29.35,29.35,0,0,0,29.35-29.35V805.35h0V754.54a142.13,142.13,0,0,0-27.56-84.11l-30.17-41.09,48.45-6.62a21.54,21.54,0,0,0,18.62-21.34V590.81A21.54,21.54,0,0,0,857.16,569.27ZM301.52,536a44.88,44.88,0,0,1,42.59-30.63H679.89A44.88,44.88,0,0,1,722.48,536l26.37,75.76H274.7Zm48.76,210.32a23.49,23.49,0,0,1-23.49,23.49H208.39a23.49,23.49,0,0,1-23.49-23.49v-11a31.89,31.89,0,0,1,37.25-31.44l108.58,18.51a23.49,23.49,0,0,1,19.54,23.16v0.79Zm477.5-35.39a31.89,31.89,0,0,1,11.32,24.37v11a23.49,23.49,0,0,1-23.49,23.49H697.21a23.49,23.49,0,0,1-23.49-23.49v-0.79a23.49,23.49,0,0,1,19.54-23.16l108.58-18.51A31.89,31.89,0,0,1,827.77,710.92Z"/></svg>